<svg width="90" height="90" viewBox="0 0 90 90" fill="none" xmlns="http://www.w3.org/2000/svg">
<mask id="mask0" mask-type="alpha" maskUnits="userSpaceOnUse" x="0" y="0" width="43" height="43">
<rect width="42.5" height="42.5" fill="#C4C4C4"/>
</mask>
<g mask="url(#mask0)">
<rect x="12.5" y="12.5" width="59.1667" height="59.1667" rx="20" fill="#FFCE2C"/>
</g>
<mask id="mask1" mask-type="alpha" maskUnits="userSpaceOnUse" x="47" y="0" width="43" height="43">
<rect x="90" width="42.5" height="42.5" transform="rotate(90 90 0)" fill="#C4C4C4"/>
</mask>
<g mask="url(#mask1)">
<rect x="77.5" y="12.5" width="59.1667" height="59.1667" rx="20" transform="rotate(90 77.5 12.5)" fill="#FFCE2C"/>
</g>
<mask id="mask2" mask-type="alpha" maskUnits="userSpaceOnUse" x="47" y="47" width="43" height="43">
<rect x="90" y="90" width="42.5" height="42.5" transform="rotate(180 90 90)" fill="#C4C4C4"/>
</mask>
<g mask="url(#mask2)">
<rect x="77.5" y="77.5" width="59.1667" height="59.1667" rx="20" transform="rotate(180 77.5 77.5)" fill="#FFCE2C"/>
</g>
<mask id="mask3" mask-type="alpha" maskUnits="userSpaceOnUse" x="0" y="47" width="43" height="43">
<rect width="42.5" height="42.5" transform="matrix(1 0 0 -1 0 90)" fill="#C4C4C4"/>
</mask>
<g mask="url(#mask3)">
<rect width="59.1667" height="59.1667" rx="20" transform="matrix(1 0 0 -1 12.5 77.5)" fill="#FFCE2C"/>
</g>
<rect x="33.2839" y="32.2935" width="23.7626" height="23.7626" fill="white"/>
<path d="M44.6702 24.1665C33.3465 24.1665 24.1667 33.3462 24.1667 44.67C24.1667 55.9937 33.3465 65.1734 44.6702 65.1734C55.994 65.1734 65.1737 55.9937 65.1737 44.67C65.1617 33.3513 55.989 24.1786 44.6702 24.1665ZM53.305 45.3233C53.1631 45.608 52.9323 45.8388 52.6475 45.9808V45.9881L40.9313 51.8462C40.2077 52.2078 39.3281 51.9144 38.9665 51.1908C38.8637 50.9851 38.8108 50.758 38.812 50.5281V38.8119C38.8117 38.003 39.4671 37.3471 40.2759 37.3466C40.5034 37.3466 40.7278 37.3994 40.9313 37.5011L52.6475 43.3593C53.3714 43.72 53.6659 44.5993 53.305 45.3233Z" fill="#F23131"/>
</svg>
